# xmcd CD database file
#
# Track frame offsets:
#	150
#	15203
#	33330
#	48939
#	68183
#	85876
#	102794
#	118523
#	135882
#	151541
#	171671
#
# Disc length: 2540 seconds
#
# Revision: 0
# Processed by: cddbd v1.5.2PL0 Copyright (c) Steve Scherf et al.
# Submitted via: CDex 1.70beta2
#
DISCID=7809ea0b
DTITLE=Francesca Sortino - The music I play
DYEAR=1900
DGENRE=Jazz
TTITLE0=Let the fire through
TTITLE1=Simply
TTITLE2=Namorada
TTITLE3=At the end
TTITLE4=Flattering
TTITLE5=Road song
TTITLE6=The music I play
TTITLE7=Seasons
TTITLE8=The night gone by
TTITLE9=Loving you
TTITLE10=WHen I fall in love
EXTD=
EXTT0=
EXTT1=
EXTT2=
EXTT3=
EXTT4=
EXTT5=
EXTT6=
EXTT7=
EXTT8=
EXTT9=
EXTT10=
PLAYORDER=
